{"title":"Geordie Shore S10E04 WEB-DL","uid":11862032,"size":518732511,"categoryP":"video","categoryS":"tv_shows","magnet":"?xt=urn:btih:ff792c26761c3ec53a96547aa33c256e2ddbb200&amp;dn=Geordie+Shore+S10E04+WEB-DL&amp;tr=udp%3A%2F%2Ftracker.openbittorrent.com%3A80&amp;tr=udp%3A%2F%2Fopen.demonii.com%3A1337&amp;tr=udp%3A%2F%2Ftracker.coppersurfer.tk%3A6969&amp;tr=udp%3A%2F%2Fexodus.desync.com%3A6969","seeders":7,"leechers":0,"uploader":"jmanwf","files":2,"time":1430300801,"description":"Released 28 April 2015\n\nIt's the day that Charlotte's been dreading, Gary introdices his new girlfriend to the family but will Psycho Charlotte put in an appearance? Meanwhile Marnie and Aaron get very flirty!\n\n\n\nVideo\nID : 2\nFormat : AVC\nFormat/Info : Advanced Video Codec\nFormat profile : &lt;a class=&quot;__cf_email__&quot; href=&quot;/cdn-cgi/l/email-protection&quot; data-cfemail=&quot;e5a7849680898c8b80a5a9d6cbd5&quot;&gt;[email&amp;#160;protected]&lt;/a&gt;&lt;script cf-hash='f9e31' type=&quot;text/javascript&quot;&gt;\n/* &lt;![CDATA[ */!function(){try{var t=&quot;currentScript&quot;in document?document.currentScript:function(){for(var t=document.getElementsByTagName(&quot;script&quot;),e=t.length;e--;)if(t[e].getAttribute(&quot;cf-hash&quot;))return t[e]}();if(t&amp;&amp;t.previousSibling){var e,r,n,i,c=t.previousSibling,a=c.getAttribute(&quot;data-cfemail&quot;);if(a){for(e=&quot;&quot;,r=parseInt(a.substr(0,2),16),n=2;a.length-n;n+=2)i=parseInt(a.substr(n,2),16)^r,e+=String.fromCharCode(i);e=document.createTextNode(e),c.parentNode.replaceChild(e,c)}}}catch(u){}}();/* ]]&gt; */&lt;/script&gt;\nFormat settings, CABAC : No\nFormat settings, ReFrames : 1 frame\nCodec ID : avc1\nCodec ID/Info : Advanced Video Coding\nDuration : 42mn 1s\nBit rate : 1 517 Kbps\nWidth : 640 pixels\nHeight : 480 pixels\nDisplay aspect ratio : 16:9\nFrame rate mode : Constant\nFrame rate : 25.000 fps\nColor space : YUV\nChroma subsampling : 4:2:0\nBit depth : 8 bits\nScan type : Progressive\nBits/(Pixel*Frame) : 0.198\nStream size : 456 MiB (92%)\nLanguage : English\nEncoded date : UTC 2015-04-29 06:06:28\nTagged date : UTC 2015-04-29 06:08:33\nColor primaries : BT.601 NTSC\nTransfer characteristics : BT.709\nMatrix coefficients : BT.601\nColor range : Limited\n\nAudio\nID : 1\nFormat : AAC\nFormat/Info : Advanced Audio Codec\nFormat profile : LC\nCodec ID : 40\nDuration : 42mn 1s\nDuration_LastFrame : -18ms\nBit rate mode : Variable\nBit rate : 125 Kbps\nMaximum bit rate : 191 Kbps\nChannel(s) : 2 channels\nChannel positions : Front: L R\nSampling rate : 44.1 KHz\nCompression mode : Lossy\nStream size : 37.7 MiB (8%)\nLanguage : English\nEncoded date : UTC 2015-04-29 06:06:28\nTagged date : UTC 2015-04-29 06:08:33\n\nText\nID : 3-CC1\nFormat : EIA-608\nMuxing mode : Final Cut\nCodec ID : c608\nDuration : 41mn 59s\nBit rate mode : Constant\nStream size : 0.00 Byte (0%)\nLanguage : English\nEncoded date : UTC 2015-04-29 06:06:28\nTagged date : UTC 2015-04-29 06:07:48\n\n\n\n &lt;a href=&quot;\nhttps://itunes.apple.com/gb/tv-season/geordie-shore-season-10/id979550691&quot; rel=&quot;nofollow&quot; target=&quot;_NEW&quot;&gt;\nhttps://itunes.apple.com/gb/tv-season/geordie-shore-season-10/id979550691&lt;/a&gt;","torrent":{"xt":"urn:btih:ff792c26761c3ec53a96547aa33c256e2ddbb200","amp;dn":"Geordie+Shore+S10E04+WEB-DL","amp;tr":["udp%3A%2F%2Ftracker.openbittorrent.com%3A80","udp%3A%2F%2Fopen.demonii.com%3A1337","udp%3A%2F%2Ftracker.coppersurfer.tk%3A6969","udp%3A%2F%2Fexodus.desync.com%3A6969"],"infoHash":"ff792c26761c3ec53a96547aa33c256e2ddbb200","infoHashBuffer":{"type":"Buffer","data":[255,121,44,38,118,28,62,197,58,150,84,122,163,60,37,110,45,219,178,0]},"announce":[],"urlList":[]}}